<svg width="188" height="188" viewBox="0 0 188 188" fill="none" xmlns="http://www.w3.org/2000/svg">
<path fill-rule="evenodd" clip-rule="evenodd" d="M33.9181 52.7181C47.3598 39.2765 65.5906 31.725 84.6 31.725C87.8447 31.725 90.475 34.3553 90.475 37.6C90.475 40.8447 87.8447 43.475 84.6 43.475C68.7069 43.475 53.4648 49.7885 42.2266 61.0266C30.9885 72.2648 24.675 87.5069 24.675 103.4C24.675 119.293 30.9885 134.535 42.2266 145.773C53.4648 157.011 68.7069 163.325 84.6 163.325C100.493 163.325 115.735 157.011 126.973 145.773C138.212 134.535 144.525 119.293 144.525 103.4C144.525 100.155 147.155 97.525 150.4 97.525C153.645 97.525 156.275 100.155 156.275 103.4C156.275 122.409 148.724 140.64 135.282 154.082C121.84 167.524 103.609 175.075 84.6 175.075C65.5906 175.075 47.3598 167.524 33.9181 154.082C20.4765 140.64 12.925 122.409 12.925 103.4C12.925 84.3906 20.4765 66.1598 33.9181 52.7181Z" fill="#B3B9C4"/>
<path fill-rule="evenodd" clip-rule="evenodd" d="M47.5979 112.364C50.5944 111.12 54.0324 112.54 55.277 115.536C56.8759 119.386 59.2166 122.884 62.1658 125.83L62.1734 125.838C65.1143 128.786 68.6088 131.125 72.4562 132.719C76.3037 134.312 80.4281 135.13 84.5926 135.125H84.6073C88.7718 135.13 92.8963 134.312 96.7437 132.719C100.591 131.125 104.086 128.786 107.027 125.838L107.034 125.83C109.983 122.884 112.324 119.386 113.923 115.536C115.168 112.54 118.606 111.12 121.602 112.364C124.599 113.609 126.019 117.047 124.774 120.043C122.585 125.315 119.38 130.105 115.341 134.14C111.308 138.182 106.516 141.388 101.241 143.574C95.9653 145.759 90.3101 146.881 84.6 146.875C78.8899 146.881 73.2347 145.759 67.9593 143.574C62.6832 141.388 57.8908 138.182 53.8575 134.139C49.8199 130.104 46.6151 125.315 44.4257 120.043C43.1811 117.047 44.6014 113.609 47.5979 112.364Z" fill="#B3B9C4"/>
<path fill-rule="evenodd" clip-rule="evenodd" d="M65.8 79.1167C62.7716 79.1167 60.3167 81.5716 60.3167 84.6C60.3167 87.6284 62.7716 90.0833 65.8 90.0833C68.8284 90.0833 71.2833 87.6284 71.2833 84.6C71.2833 81.5716 68.8284 79.1167 65.8 79.1167ZM52.4833 84.6C52.4833 77.2454 58.4454 71.2833 65.8 71.2833C73.1546 71.2833 79.1167 77.2454 79.1167 84.6C79.1167 91.9546 73.1546 97.9167 65.8 97.9167C58.4454 97.9167 52.4833 91.9546 52.4833 84.6Z" fill="#B3B9C4"/>
<path fill-rule="evenodd" clip-rule="evenodd" d="M103.4 79.1167C100.372 79.1167 97.9167 81.5716 97.9167 84.6C97.9167 87.6284 100.372 90.0833 103.4 90.0833C106.428 90.0833 108.883 87.6284 108.883 84.6C108.883 81.5716 106.428 79.1167 103.4 79.1167ZM90.0833 84.6C90.0833 77.2454 96.0454 71.2833 103.4 71.2833C110.755 71.2833 116.717 77.2454 116.717 84.6C116.717 91.9546 110.755 97.9167 103.4 97.9167C96.0454 97.9167 90.0833 91.9546 90.0833 84.6Z" fill="#B3B9C4"/>
<path fill-rule="evenodd" clip-rule="evenodd" d="M150.165 3.525C153.41 3.525 156.04 6.15533 156.04 9.4V65.8C156.04 69.0447 153.41 71.675 150.165 71.675C146.92 71.675 144.29 69.0447 144.29 65.8V9.4C144.29 6.15533 146.92 3.525 150.165 3.525Z" fill="#B3B9C4"/>
<path fill-rule="evenodd" clip-rule="evenodd" d="M116.09 37.6C116.09 34.3553 118.72 31.725 121.965 31.725H178.365C181.61 31.725 184.24 34.3553 184.24 37.6C184.24 40.8447 181.61 43.475 178.365 43.475H121.965C118.72 43.475 116.09 40.8447 116.09 37.6Z" fill="#B3B9C4"/>
</svg>
