<svg width="190" height="189" viewBox="0 0 190 189" fill="none" xmlns="http://www.w3.org/2000/svg">
<path d="M189.199 94.1C189.199 146.1 146.999 188.3 94.9993 188.3C43.0993 188.3 0.899292 146.1 0.899292 94.1C0.899292 42.2 43.0993 0 94.9993 0C146.999 0 189.199 42.2 189.199 94.1Z" fill="#F8824F"/>
<g style="mix-blend-mode:multiply" opacity="0.3">
<path d="M94.9993 176.9C54.8993 176.9 20.2993 154 4.89929 121.2C16.4993 160 52.4993 188.3 94.9993 188.3C137.599 188.3 173.599 160 185.199 121.2C169.799 154 135.199 176.9 94.9993 176.9Z" fill="#CCCCCC"/>
</g>
<path d="M62.8993 110.1C62.8993 110.1 38.1993 100.6 38.1993 110.1C38.1993 119.7 43.6993 127.4 50.5993 127.4C57.3993 127.4 62.8993 119.7 62.8993 110.1Z" fill="#594129"/>
<path d="M151.899 110.1C151.899 100.6 127.099 110.1 127.099 110.1C127.099 119.7 132.699 127.4 139.499 127.4C146.299 127.4 151.899 119.7 151.899 110.1Z" fill="#594129"/>
<path d="M124.499 14.6C124.499 20.1 111.299 24.6 94.9993 24.6C78.7993 24.6 65.4993 20.1 65.4993 14.6C65.4993 9.10001 78.7993 4.70001 94.9993 4.70001C111.299 4.70001 124.499 9.10001 124.499 14.6Z" fill="#FF9466"/>
<path d="M76.5993 120.7C76.1993 120.7 75.7993 120.633 75.3993 120.5L25.1993 103.6C23.1993 102.9 22.1993 100.8 22.7993 98.8C23.4993 96.9 25.5993 95.8 27.5993 96.5L77.7993 113.5C79.6993 114.1 80.7993 116.2 80.0993 118.2C79.5993 119.8 78.1993 120.7 76.5993 120.7Z" fill="#594129"/>
<path d="M113.499 120.7C113.899 120.7 114.299 120.633 114.699 120.5L164.899 103.6C166.899 102.9 167.899 100.8 167.199 98.8C166.599 96.9 164.499 95.8 162.499 96.5L112.299 113.5C110.299 114.1 109.299 116.2 109.999 118.2C110.499 119.8 111.899 120.7 113.499 120.7Z" fill="#594129"/>
<path d="M77.0993 155.8C77.366 155.867 77.6327 155.867 77.8993 155.8L112.699 151.8C114.099 151.7 114.999 150.4 114.899 149.1C114.699 147.7 113.499 146.8 112.099 146.9L77.3993 150.9C75.9993 151.1 75.0993 152.3 75.1993 153.7C75.2993 154.7 76.0993 155.6 77.0993 155.8Z" fill="#594129"/>
</svg>
