<svg width="189" height="189" viewBox="0 0 189 189" fill="none" xmlns="http://www.w3.org/2000/svg">
<path d="M188.899 94.2C188.899 146.1 146.699 188.3 94.6992 188.3C42.7992 188.3 0.599243 146.1 0.599243 94.2C0.599243 42.2 42.7992 0 94.6992 0C146.699 0 188.899 42.2 188.899 94.2Z" fill="#FFE26F"/>
<g style="mix-blend-mode:multiply" opacity="0.3">
<path d="M94.6992 176.9C54.5992 176.9 19.9992 154 4.59924 121.2C16.1992 160 52.1992 188.3 94.6992 188.3C137.299 188.3 173.299 160 184.899 121.2C169.499 154 134.899 176.9 94.6992 176.9Z" fill="#CCCCCC"/>
</g>
<path d="M49.8992 93.1C44.2992 93.1 39.7992 100.8 39.7992 110.3V170.5C46.3992 175.3 53.6992 179.3 61.3992 182.2V93.1C61.3992 93.1 56.8992 93.1 51.2992 93.1H49.8992Z" fill="#84A8EF"/>
<path d="M139.599 93.1C145.099 93.1 149.699 100.8 149.699 110.3V170.5C143.099 175.3 135.799 179.3 127.999 182.2V93.1C127.999 93.1 132.599 93.1 138.099 93.1H139.599Z" fill="#84A8EF"/>
<path d="M107.399 144.5C107.399 134.7 101.699 126.8 94.6992 126.8C87.6992 126.8 82.0992 134.7 82.0992 144.5C82.0992 154.2 87.6992 162.2 94.6992 162.2C101.699 162.2 107.399 154.2 107.399 144.5Z" fill="#594129"/>
<path d="M94.6992 146.7C90.3992 146.7 86.5992 149.8 84.2992 154.4C86.5992 159.1 90.3992 162.2 94.6992 162.2C99.0992 162.2 102.899 159.1 105.199 154.4C102.899 149.8 99.0992 146.7 94.6992 146.7Z" fill="#FB3569"/>
<path d="M74.6992 112.9C72.7992 112.9 71.1992 111.3 71.1992 109.3C71.1992 101.5 64.7992 95.1 56.8992 95.1C49.0992 95.1 42.6992 101.5 42.6992 109.3C42.6992 111.3 41.0992 112.9 39.0992 112.9C37.1992 112.9 35.5992 111.3 35.5992 109.3C35.5992 97.6 45.0992 88 56.8992 88C68.6992 88 78.2993 97.6 78.2993 109.3C78.2993 111.3 76.6992 112.9 74.6992 112.9Z" fill="#594129"/>
<path d="M150.399 112.9C148.399 112.9 146.799 111.3 146.799 109.3C146.799 101.5 140.399 95.1 132.599 95.1C124.699 95.1 118.299 101.5 118.299 109.3C118.299 111.3 116.699 112.9 114.799 112.9C112.799 112.9 111.199 111.3 111.199 109.3C111.199 97.6 120.799 88 132.599 88C144.299 88 153.899 97.6 153.899 109.3C153.899 111.3 152.299 112.9 150.399 112.9Z" fill="#594129"/>
<path d="M27.9992 107.2C25.8992 107.2 24.2992 105.6 24.2992 103.5C24.2992 88.5 36.4992 76.2 51.5992 76.2C53.5992 76.2 55.2992 77.9 55.2992 79.9C55.2992 82 53.5992 83.7 51.5992 83.7C40.5992 83.7 31.6992 92.6 31.6992 103.5C31.6992 105.6 29.9992 107.2 27.9992 107.2Z" fill="#594129"/>
<path d="M162.599 107.2C164.699 107.2 166.299 105.6 166.299 103.5C166.299 88.5 154.099 76.2 138.999 76.2C136.999 76.2 135.299 77.9 135.299 79.9C135.299 82 136.999 83.7 138.999 83.7C149.999 83.7 158.899 92.6 158.899 103.5C158.899 105.6 160.599 107.2 162.599 107.2Z" fill="#594129"/>
<path d="M124.199 18C124.199 23.5 110.999 28 94.6992 28C78.4992 28 65.1992 23.5 65.1992 18C65.1992 12.5 78.4992 8 94.6992 8C110.999 8 124.199 12.5 124.199 18Z" fill="#FFEE71"/>
</svg>
