<svg width="188" height="188" viewBox="0 0 188 188" fill="none" xmlns="http://www.w3.org/2000/svg">
<path d="M0 93.9448C0 42.1208 42.1208 0 93.9448 0C145.879 0 188 42.1208 188 93.9448C188 145.879 145.879 188 93.9448 188C42.1208 188 0 145.879 0 93.9448Z" fill="#4A85D3"/>
<g style="mix-blend-mode:multiply" opacity="0.3">
<path d="M93.9501 176.618C53.914 176.618 19.3691 153.755 3.99365 121.007C15.5752 159.745 51.5178 188 93.9501 188C136.482 188 172.425 159.745 184.006 121.007C168.631 153.755 134.086 176.618 93.9501 176.618Z" fill="#CCCCCC"/>
</g>
<path d="M148.195 71.7818H133.199H127.134H115.556C114.674 71.7818 114.013 71.01 114.233 70.2381C115.557 65.4968 115.777 60.4246 115.777 55.573C115.777 52.9267 115.887 49.8393 115.556 46.9724C115.226 43.9953 114.564 41.1284 112.8 38.8129C110.815 36.3871 107.948 34.5126 104.751 34.5126C97.2528 34.5126 96.1501 41.7901 95.3783 47.7443C94.6064 54.5807 94.2756 61.7478 91.1882 68.1431C89.0932 72.5537 86.1161 76.4129 81.2644 78.2874C77.6257 79.7209 74.9794 80.8235 71.1202 81.5953C70.5689 81.7056 70.1278 82.2569 70.1278 82.8082V131.104C70.1278 131.765 70.6791 132.317 71.3407 132.317H84.6826C85.1236 132.317 85.4544 132.537 85.7852 132.868C88.3213 136.397 92.6216 138.712 97.3629 138.712H118.093H133.199H139.153C145.218 138.712 150.179 133.64 150.179 127.575C150.179 126.032 149.849 124.488 149.187 123.165C148.966 122.613 149.077 122.062 149.518 121.621C151.723 119.857 153.267 115.777 153.267 112.579V111.367C153.267 109.823 152.826 108.279 152.164 106.956C151.944 106.405 152.054 105.743 152.495 105.412C154.81 103.648 156.244 100.891 156.244 97.8041V96.481C156.244 94.9373 155.803 93.3936 155.141 92.0704C154.921 91.5191 155.031 90.9678 155.472 90.5267C157.788 88.7625 159.221 86.0059 159.221 82.9185C159.221 76.7437 154.259 71.7818 148.195 71.7818Z" fill="white"/>
<path d="M60.3143 137.279H40.577C38.9231 137.279 37.6 135.955 37.6 134.191V79.1694C37.6 77.5154 38.9231 76.0821 40.577 76.0821H60.3143C61.9683 76.0821 63.2915 77.5154 63.2915 79.1694V134.191C63.2915 135.955 61.9683 137.279 60.3143 137.279Z" fill="white"/>
<path d="M123.403 15.675C123.403 21.1662 110.224 25.6591 93.9501 25.6591C77.7759 25.6591 64.4971 21.1662 64.4971 15.675C64.4971 10.1837 77.7759 5.69092 93.9501 5.69092C110.224 5.69092 123.403 10.1837 123.403 15.675Z" fill="#5A8ED2"/>
</svg>
