<svg width="189" height="189" viewBox="0 0 189 189" fill="none" xmlns="http://www.w3.org/2000/svg">
<path d="M188.5 94.1C188.5 146.1 146.299 188.3 94.2995 188.3C42.3995 188.3 0.199463 146.1 0.199463 94.1C0.199463 42.2 42.3995 0 94.2995 0C146.299 0 188.5 42.2 188.5 94.1Z" fill="#FFE26F"/>
<g style="mix-blend-mode:multiply" opacity="0.3">
<path d="M94.2995 176.9C54.1995 176.9 19.5995 154 4.19946 121.2C15.7995 160 51.6995 188.3 94.2995 188.3C136.9 188.3 172.9 160 184.5 121.2C169.1 154 134.499 176.9 94.2995 176.9Z" fill="#CCCCCC"/>
</g>
<path d="M142.899 100H45.7994C41.6994 100 38.5994 103.6 39.0994 107.7C42.7994 134.8 66.0994 155.8 94.2994 155.8C122.499 155.8 145.899 134.8 149.599 107.7C150.099 103.6 146.899 100 142.899 100Z" fill="#594129"/>
<path d="M94.2995 126.3C78.1995 126.3 62.8995 128.8 49.4995 133.1C59.6995 146.8 75.8995 155.8 94.2995 155.8C112.7 155.8 128.999 146.8 139.199 133.1C125.699 128.8 110.5 126.3 94.2995 126.3Z" fill="#FB3569"/>
<path d="M69.7995 76.5C68.2995 76.5 66.9995 75.2 66.9995 73.7C66.9995 67.5 61.9995 62.5 55.7995 62.5C49.6995 62.5 44.5995 67.5 44.5995 73.7C44.5995 75.2 43.3995 76.5 41.7995 76.5C40.2995 76.5 38.9995 75.2 38.9995 73.7C38.9995 64.4 46.5995 56.9 55.7995 56.9C65.0995 56.9 72.5995 64.4 72.5995 73.7C72.5995 75.2 71.3995 76.5 69.7995 76.5Z" fill="#594129"/>
<path d="M146.8 76.5C145.3 76.5 144.1 75.2 144.1 73.7C144.1 67.5 139 62.5 132.9 62.5C126.7 62.5 121.7 67.5 121.7 73.7C121.7 75.2 120.4 76.5 118.9 76.5C117.3 76.5 116.1 75.2 116.1 73.7C116.1 64.4 123.6 56.9 132.9 56.9C142.1 56.9 149.6 64.4 149.6 73.7C149.6 75.2 148.4 76.5 146.8 76.5Z" fill="#594129"/>
<path d="M142.899 100H45.7994C41.6994 100 38.5994 103.6 39.0994 107.7C39.4994 110.5 40.0994 113.2 40.8994 115.8H147.799C148.599 113.2 149.199 110.5 149.599 107.7C150.099 103.6 146.899 100 142.899 100Z" fill="white"/>
<path d="M123.8 14.6C123.8 20.1 110.6 24.6 94.2996 24.6C77.9996 24.6 64.7996 20.1 64.7996 14.6C64.7996 9.10001 77.9996 4.70001 94.2996 4.70001C110.6 4.70001 123.8 9.10001 123.8 14.6Z" fill="#FFEE71"/>
</svg>
