<svg width="188" height="188" viewBox="0 0 188 188" fill="none" xmlns="http://www.w3.org/2000/svg">
<path d="M0 93.9448C0 42.1208 42.1207 0 94.0551 0C145.879 0 188 42.1208 188 93.9448C188 145.879 145.879 188 94.0551 188C42.1207 188 0 145.879 0 93.9448Z" fill="#F94343"/>
<path d="M123.403 15.675C123.403 21.1662 110.224 25.6591 93.9501 25.6591C77.7759 25.6591 64.4971 21.1662 64.4971 15.675C64.4971 10.1837 77.7759 5.69092 93.9501 5.69092C110.224 5.69092 123.403 10.1837 123.403 15.675Z" fill="#FF5353"/>
<g style="mix-blend-mode:multiply" opacity="0.3">
<path d="M93.9501 176.618C53.914 176.618 19.3691 153.755 3.99365 121.007C15.5752 159.745 51.5178 188 93.9501 188C136.482 188 172.425 159.745 184.006 121.007C168.631 153.755 134.086 176.618 93.9501 176.618Z" fill="#CCCCCC"/>
</g>
<path d="M149.297 83.0286C149.297 82.9551 149.297 82.8816 149.297 82.8081C149.297 66.2685 137.389 51.1624 119.416 51.1624C105.081 51.1624 96.8117 61.4169 94.0551 71.0099C91.1882 61.4169 82.9185 51.1624 68.5842 51.1624C50.6111 51.1624 38.7027 66.2685 38.7027 82.8081C38.7027 82.8816 38.7027 82.9551 38.7027 83.0286C38.5924 86.6673 38.7026 123.275 93.9449 153.046C93.9449 153.046 93.9816 153.046 94.0551 153.046C149.297 123.275 149.408 86.6673 149.297 83.0286Z" fill="white"/>
</svg>
