<svg width="189" height="188" viewBox="0 0 189 188" fill="none" xmlns="http://www.w3.org/2000/svg">
<path d="M188.499 93.9501C188.499 145.867 146.366 188 94.4493 188C42.632 188 0.499268 145.867 0.499268 93.9501C0.499268 42.0329 42.632 0 94.4493 0C146.366 0 188.499 42.0329 188.499 93.9501Z" fill="#FFE26F"/>
<g style="mix-blend-mode:multiply" opacity="0.3">
<path d="M94.4494 176.618C54.4133 176.618 19.8684 153.755 4.49292 121.007C16.0744 159.745 52.0171 188 94.4494 188C136.981 188 172.924 159.745 184.506 121.007C169.13 153.755 134.585 176.618 94.4494 176.618Z" fill="#CCCCCC"/>
</g>
<path d="M84.3653 86.462C84.3653 104.733 69.5889 119.509 51.4179 119.509C33.147 119.509 18.3706 104.733 18.3706 86.462C18.3706 68.291 33.147 53.5146 51.4179 53.5146C69.5889 53.5146 84.3653 68.291 84.3653 86.462Z" fill="white"/>
<path d="M170.628 86.462C170.628 104.733 155.851 119.509 137.58 119.509C119.409 119.509 104.533 104.733 104.533 86.462C104.533 68.291 119.409 53.5146 137.58 53.5146C155.851 53.5146 170.628 68.291 170.628 86.462Z" fill="white"/>
<path d="M64.2975 66.394C64.2975 73.4827 58.5067 79.2735 51.418 79.2735C44.2295 79.2735 38.5386 73.4827 38.5386 66.394C38.5386 59.2055 44.2295 53.5146 51.418 53.5146C58.5067 53.5146 64.2975 59.2055 64.2975 66.394Z" fill="#594129"/>
<path d="M123.902 15.6749C123.902 21.1662 110.723 25.659 94.4493 25.659C78.2751 25.659 64.9963 21.1662 64.9963 15.6749C64.9963 10.1837 78.2751 5.69086 94.4493 5.69086C110.723 5.69086 123.902 10.1837 123.902 15.6749Z" fill="#FFEE71"/>
<path d="M150.46 66.394C150.46 73.4827 144.769 79.2735 137.581 79.2735C130.492 79.2735 124.701 73.4827 124.701 66.394C124.701 59.2055 130.492 53.5146 137.581 53.5146C144.769 53.5146 150.46 59.2055 150.46 66.394Z" fill="#594129"/>
<path d="M108.427 146.267H80.5716C78.5747 146.267 76.8774 144.669 76.8774 142.572C76.8774 140.576 78.5747 138.878 80.5716 138.878H108.427C110.424 138.878 112.121 140.576 112.121 142.572C112.121 144.669 110.424 146.267 108.427 146.267Z" fill="#594129"/>
</svg>
