<svg width="190" height="189" viewBox="0 0 190 189" fill="none" xmlns="http://www.w3.org/2000/svg">
<path d="M189.199 94.1C189.199 146.1 146.999 188.3 94.9995 188.3C43.0994 188.3 0.899414 146.1 0.899414 94.1C0.899414 42.1 43.0994 0 94.9995 0C146.999 0 189.199 42.1 189.199 94.1Z" fill="#FFE26F"/>
<path d="M94.9994 152.5C69.9994 152.5 49.5994 132.2 49.5994 107.1C49.5994 105.6 50.7994 104.4 52.2994 104.4C53.7994 104.4 54.9994 105.6 54.9994 107.1C54.9994 129.2 72.8994 147.2 94.9994 147.2C117.099 147.2 135.099 129.2 135.099 107.1C135.099 105.6 136.299 104.4 137.799 104.4C139.299 104.4 140.499 105.6 140.499 107.1C140.499 132.2 120.099 152.5 94.9994 152.5Z" fill="#594129"/>
<g style="mix-blend-mode:multiply" opacity="0.3">
<path d="M94.9995 176.9C54.8995 176.9 20.2994 154 4.89941 121.2C16.4994 160 52.3995 188.3 94.9995 188.3C137.599 188.3 173.599 160 185.199 121.2C169.799 154 135.199 176.9 94.9995 176.9Z" fill="#CCCCCC"/>
</g>
<path d="M70.4995 89C68.9995 89 67.6995 87.8 67.6995 86.2C67.6995 80 62.6995 75 56.4995 75C50.3995 75 45.2994 80 45.2994 86.2C45.2994 87.8 44.0995 89 42.4995 89C40.9995 89 39.6995 87.8 39.6995 86.2C39.6995 77 47.2995 69.4 56.4995 69.4C65.7994 69.4 73.2994 77 73.2994 86.2C73.2994 87.8 72.0994 89 70.4995 89Z" fill="#594129"/>
<path d="M147.499 89C145.999 89 144.799 87.8 144.799 86.2C144.799 80 139.699 75 133.599 75C127.399 75 122.399 80 122.399 86.2C122.399 87.8 121.099 89 119.599 89C117.999 89 116.799 87.8 116.799 86.2C116.799 77 124.299 69.4 133.599 69.4C142.799 69.4 150.299 77 150.299 86.2C150.299 87.8 149.099 89 147.499 89Z" fill="#594129"/>
<path d="M124.5 14.6C124.5 20.1 111.3 24.6 94.9995 24.6C78.6995 24.6 65.4995 20.1 65.4995 14.6C65.4995 9.10001 78.6995 4.60001 94.9995 4.60001C111.3 4.60001 124.5 9.10001 124.5 14.6Z" fill="#FFEE71"/>
<path d="M169.999 104.4C169.999 109.3 165.999 113.3 161.099 113.3C156.199 113.3 152.299 109.3 152.299 104.4C152.299 99.5 156.199 95.6 161.099 95.6C165.999 95.6 169.999 99.5 169.999 104.4Z" fill="#FB3569"/>
<path d="M36.4993 104.4C36.4993 109.3 32.5993 113.3 27.6993 113.3C22.7993 113.3 18.7993 109.3 18.7993 104.4C18.7993 99.5 22.7993 95.6 27.6993 95.6C32.5993 95.6 36.4993 99.5 36.4993 104.4Z" fill="#FB3569"/>
</svg>
