<svg width="189" height="189" viewBox="0 0 189 189" fill="none" xmlns="http://www.w3.org/2000/svg">
<path d="M188.399 94.1C188.399 146.1 146.299 188.3 94.2993 188.3C42.2993 188.3 0.199341 146.1 0.199341 94.1C0.199341 42.1 42.2993 3.05176e-05 94.2993 3.05176e-05C146.299 3.05176e-05 188.399 42.1 188.399 94.1Z" fill="#FFE26F"/>
<g style="mix-blend-mode:multiply" opacity="0.3">
<path d="M94.2994 176.9C54.0994 176.9 19.5994 154 4.09937 121.2C15.6994 160 51.6994 188.3 94.2994 188.3C136.899 188.3 172.899 160 184.499 121.2C168.999 154 134.499 176.9 94.2994 176.9Z" fill="#CCCCCC"/>
</g>
<path d="M119.399 121.7C119.399 102 107.899 86 93.6994 86C79.5994 86 68.0994 102 68.0994 121.7C68.0994 141.5 79.5994 157.4 93.6994 157.4C107.899 157.4 119.399 141.5 119.399 121.7Z" fill="#594129"/>
<path d="M93.6994 126.3C84.9994 126.3 77.1994 132.5 72.5994 141.9C77.1994 151.3 84.9994 157.4 93.6994 157.4C102.499 157.4 110.299 151.3 114.899 141.9C110.299 132.5 102.499 126.3 93.6994 126.3Z" fill="#FB3569"/>
<path d="M62.2994 57.5C62.2994 49.2 56.6994 42.6 49.8994 42.6C43.0994 42.6 37.5994 49.2 37.5994 57.5C37.5994 65.7 43.0994 72.4 49.8994 72.4C56.6994 72.4 62.2994 65.7 62.2994 57.5Z" fill="#594129"/>
<path d="M123.799 14.6C123.799 20.1 110.599 24.6 94.2993 24.6C77.9993 24.6 64.7993 20.1 64.7993 14.6C64.7993 9.10004 77.9993 4.60004 94.2993 4.60004C110.599 4.60004 123.799 9.10004 123.799 14.6Z" fill="#FFEE71"/>
<path d="M150.999 57.5C150.999 65.7 145.499 72.4 138.699 72.4C131.899 72.4 126.299 65.7 126.299 57.5C126.299 49.2 131.899 42.6 138.699 42.6C145.499 42.6 150.999 49.2 150.999 57.5Z" fill="#594129"/>
<path d="M65.4994 12.5C64.4994 12.5 63.5994 12.1 62.8994 11.3C61.1994 9.00001 58.2993 6.40001 54.6993 6.40001C50.9993 6.40001 48.0994 9.00001 46.3994 11.3C45.2994 12.7 43.1993 12.9 41.7993 11.8C40.3993 10.7 40.1993 8.6 41.2993 7.2C48.8993 -2.4 60.3994 -2.4 67.9994 7.2C69.0994 8.6 68.8994 10.7 67.4994 11.8C66.8994 12.3 66.1994 12.5 65.4994 12.5Z" fill="#594129"/>
<path d="M143.699 12.5C142.699 12.5 141.799 12.1 141.099 11.3C139.299 9.00001 136.499 6.40001 132.799 6.40001C129.199 6.40001 126.299 9.00001 124.499 11.3C123.399 12.7 121.399 12.9 119.999 11.8C118.599 10.7 118.299 8.6 119.499 7.2C127.099 -2.4 138.599 -2.4 146.199 7.2C147.299 8.6 147.099 10.7 145.699 11.8C145.099 12.3 144.399 12.5 143.699 12.5Z" fill="#594129"/>
</svg>
