<svg width="200" height="189" viewBox="0 0 200 189" fill="none" xmlns="http://www.w3.org/2000/svg">
<path d="M194 94.2C194 146.1 151.8 188.3 99.7997 188.3C47.8997 188.3 5.69965 146.1 5.69965 94.2C5.69965 42.2 47.8997 0 99.7997 0C151.8 0 194 42.2 194 94.2Z" fill="#FFE26F"/>
<g style="mix-blend-mode:multiply" opacity="0.3">
<path d="M99.7997 176.9C59.6997 176.9 25.0996 154 9.69965 121.2C21.2996 160 57.1997 188.3 99.7997 188.3C142.4 188.3 178.4 160 190 121.2C174.6 154 140 176.9 99.7997 176.9Z" fill="#CCCCCC"/>
</g>
<path d="M148.4 100H51.2997C47.1997 100 44.0997 103.6 44.5997 107.7C48.2997 134.9 71.5997 155.8 99.7997 155.8C128 155.8 151.4 134.9 155.1 107.7C155.6 103.6 152.4 100 148.4 100Z" fill="#594129"/>
<path d="M99.7997 126.3C83.6997 126.3 68.3997 128.8 54.9997 133.1C65.1997 146.9 81.3997 155.8 99.7997 155.8C118.2 155.8 134.5 146.9 144.7 133.1C131.2 128.8 116 126.3 99.7997 126.3Z" fill="#FB3569"/>
<path d="M148.4 100H51.2997C47.1997 100 44.0997 103.6 44.5997 107.7C44.9997 110.5 45.5997 113.2 46.3997 115.8H153.3C154.1 113.2 154.7 110.5 155.1 107.7C155.6 103.6 152.4 100 148.4 100Z" fill="white"/>
<path d="M21.5997 122.2C27.9997 117.9 42.2997 91.8 42.2997 91.8C42.2997 91.8 12.5996 94.7 6.19963 99C-0.200371 103.2 -1.90033 111.8 2.29967 118.2C6.49967 124.7 15.1997 126.4 21.5997 122.2Z" fill="#84A8EF"/>
<path d="M178.1 122.2C171.7 117.9 157.4 91.8 157.4 91.8C157.4 91.8 187 94.7 193.5 99C199.9 103.2 201.6 111.8 197.4 118.2C193.1 124.7 184.5 126.4 178.1 122.2Z" fill="#84A8EF"/>
<path d="M47.9997 89.2C46.6997 89.2 45.4997 88.5 44.8997 87.3C44.0997 85.6 44.6997 83.5 46.4997 82.6L68.1997 71.7L46.4997 60.9001C44.6997 60.0001 44.0997 57.9 44.8997 56.2C45.7997 54.5 47.8997 53.8 49.5997 54.6L77.5997 68.6C78.6997 69.2 79.4997 70.4 79.4997 71.7C79.4997 73.1 78.6997 74.3001 77.5997 74.9001L49.5997 88.8C49.0663 89.0667 48.533 89.2 47.9997 89.2Z" fill="#594129"/>
<path d="M151.7 89.2C152.9 89.2 154.2 88.5 154.8 87.3C155.6 85.6 154.9 83.5 153.2 82.6L131.4 71.7L153.2 60.9001C154.9 60.0001 155.6 57.9 154.8 56.2C153.9 54.5 151.8 53.8 150.1 54.6L122.1 68.6C120.9 69.2 120.2 70.4 120.2 71.7C120.2 73.1 120.9 74.3001 122.1 74.9001L150.1 88.8C150.633 89.0667 151.166 89.2 151.7 89.2Z" fill="#594129"/>
<path d="M129.3 18C129.3 23.5 116.1 28 99.7997 28C83.4997 28 70.2997 23.5 70.2997 18C70.2997 12.5 83.4997 8 99.7997 8C116.1 8 129.3 12.5 129.3 18Z" fill="#FFEE71"/>
</svg>
