<svg width="189" height="191" viewBox="0 0 189 191" fill="none" xmlns="http://www.w3.org/2000/svg">
<g style="mix-blend-mode:multiply" opacity="0.2">
<path d="M164.099 179.6C164.099 173.6 133.099 168.7 94.7994 168.7C56.4994 168.7 25.4994 173.6 25.4994 179.6C25.4994 185.6 56.4994 190.5 94.7994 190.5C133.099 190.5 164.099 185.6 164.099 179.6Z" fill="#CCCCCC"/>
</g>
<path d="M188.899 94.1C188.899 146.1 146.799 188.3 94.7993 188.3C42.7993 188.3 0.699341 146.1 0.699341 94.1C0.699341 42.2 42.7993 0 94.7993 0C146.799 0 188.899 42.2 188.899 94.1Z" fill="#FFE26F"/>
<path d="M124.299 14.6C124.299 20.1 111.099 24.6 94.7993 24.6C78.4993 24.6 65.2993 20.1 65.2993 14.6C65.2993 9.10001 78.4993 4.70001 94.7993 4.70001C111.099 4.70001 124.299 9.10001 124.299 14.6Z" fill="#FFEE71"/>
<g style="mix-blend-mode:multiply" opacity="0.3">
<path d="M94.7994 176.9C54.5994 176.9 20.0994 154 4.59937 121.2C16.1994 160 52.1994 188.3 94.7994 188.3C137.399 188.3 173.399 160 184.999 121.2C169.499 154 134.999 176.9 94.7994 176.9Z" fill="#CCCCCC"/>
</g>
<path d="M94.7993 132.2C85.1993 132.2 75.8993 136.2 68.5993 143.5C67.9993 144.1 67.6993 144.9 67.7993 145.6C67.8993 146.4 68.3993 147.1 69.1993 147.6C69.9993 148.1 70.8994 148.3 71.8994 148.3C72.8994 148.2 73.7994 147.8 74.3994 147.2C78.6994 142.9 85.6993 137.8 94.7993 137.8C103.899 137.8 110.899 142.9 115.199 147.1C116.399 148.4 118.799 148.6 120.399 147.6C121.199 147.1 121.699 146.4 121.799 145.6C121.899 144.9 121.599 144.1 120.999 143.5C113.699 136.2 104.399 132.2 94.7993 132.2Z" fill="#594129"/>
<path d="M22.0994 109.4C19.5994 109.4 17.5994 107.4 17.5994 104.9C17.5994 86.9 32.2994 72.2 50.3994 72.2C52.7994 72.2 54.7994 74.2 54.7994 76.7C54.7994 79.1 52.7994 81.1 50.3994 81.1C37.1994 81.1 26.5994 91.8 26.5994 104.9C26.5994 107.4 24.5994 109.4 22.0994 109.4Z" fill="#594129"/>
<path d="M168.599 109.4C171.099 109.4 173.099 107.4 173.099 104.9C173.099 86.9 158.399 72.2 140.299 72.2C137.899 72.2 135.899 74.2 135.899 76.7C135.899 79.1 137.899 81.1 140.299 81.1C153.499 81.1 164.099 91.8 164.099 104.9C164.099 107.4 166.099 109.4 168.599 109.4Z" fill="#594129"/>
<path d="M65.7993 104.9C65.7993 113.5 58.8994 120.4 50.3994 120.4C41.7994 120.4 34.8994 113.5 34.8994 104.9C34.8994 96.4 41.7994 89.5 50.3994 89.5C58.8994 89.5 65.7993 96.4 65.7993 104.9Z" fill="#594129"/>
<path d="M154.499 104.9C154.499 113.5 147.599 120.4 138.999 120.4C130.499 120.4 123.499 113.5 123.499 104.9C123.499 96.4 130.499 89.5 138.999 89.5C147.599 89.5 154.499 96.4 154.499 104.9Z" fill="#594129"/>
<path d="M173.999 161.1C173.999 153.7 160.599 128.3 160.599 128.3C160.599 128.3 147.199 153.7 147.199 161.1C147.199 168.5 153.199 174.5 160.599 174.5C167.999 174.5 173.999 168.5 173.999 161.1Z" fill="#84A8EF"/>
<path d="M52.3994 100.4C52.3994 103.9 49.4994 106.8 45.8994 106.8C42.2994 106.8 39.4994 103.9 39.4994 100.4C39.4994 96.8 42.2994 93.9 45.8994 93.9C49.4994 93.9 52.3994 96.8 52.3994 100.4Z" fill="white"/>
<path d="M59.1993 110.5C59.1993 112.6 57.5993 114.2 55.4993 114.2C53.4993 114.2 51.7993 112.6 51.7993 110.5C51.7993 108.5 53.4993 106.8 55.4993 106.8C57.5993 106.8 59.1993 108.5 59.1993 110.5Z" fill="white"/>
<path d="M141.999 100.4C141.999 103.9 139.099 106.8 135.599 106.8C131.999 106.8 129.099 103.9 129.099 100.4C129.099 96.8 131.999 93.9 135.599 93.9C139.099 93.9 141.999 96.8 141.999 100.4Z" fill="white"/>
<path d="M148.899 110.5C148.899 112.6 147.199 114.2 145.199 114.2C143.099 114.2 141.499 112.6 141.499 110.5C141.499 108.5 143.099 106.8 145.199 106.8C147.199 106.8 148.899 108.5 148.899 110.5Z" fill="white"/>
</svg>
